{"title":"Guyane S01 E01 - 720p x264 - FRE (ENG SUBS) [BRSHNKV]","magnet":"magnet:?xt=urn:btih:dd8161590918c506b870f211dfa19f41a5d3ea69&dn=Guyane+S01+E01+-+720p+x264+-+FRE+%28ENG+SUBS%29+%5BBRSHNKV%5D&tr=udp%3A%2F%2Ftracker.leechers-paradise.org%3A6969&tr=udp%3A%2F%2Fzer0day.ch%3A1337&tr=udp%3A%2F%2Fopen.demonii.com%3A1337&tr=udp%3A%2F%2Ftracker.coppersurfer.tk%3A6969&tr=udp%3A%2F%2Fexodus.desync.com%3A6969","uploader":"BRSHNKV","categoryP":"video","categoryS":"hd___tv_shows","size":"671422002","seeders":"8","leechers":"2","description":" <a href=\"https://www.imdb.com/title/tt5904172/?ref_=rvi_tt\" rel=\"nofollow\" target=\"_NEW\">https://www.imdb.com/title/tt5904172/?ref_=rvi_tt</a>\r\n\r\nVideo\r\nID                                       : 1\r\nFormat                                   : AVC\r\nFormat/Info                              : Advanced Video Codec\r\nFormat profile                           : Main@L4\r\nFormat settings, CABAC                   : Yes\r\nFormat settings, ReFrames                : 4 frames\r\nCodec ID                                 : avc1\r\nCodec ID/Info                            : Advanced Video Coding\r\nDuration                                 : 47mn 49s\r\nBit rate                                 : 1 700 Kbps\r\nWidth                                    : 1 280 pixels\r\nHeight                                   : 640 pixels\r\nDisplay aspect ratio                     : 2.000\r\nFrame rate mode                          : Constant\r\nFrame rate                               : 30.000 fps\r\nColor space                              : YUV\r\nChroma subsampling                       : 4:2:0\r\nBit depth                                : 8 bits\r\nScan type                                : Progressive\r\nBits/(Pixel*Frame)                       : 0.069\r\nStream size                              : 582 MiB (91%)\r\nWriting library                          : x264 core 155 r2901 7d0ff22\r\nEncoded date                             : UTC 2018-08-24 11:54:46\r\nTagged date                              : UTC 2018-08-24 11:54:46\r\nColor range                              : Limited\r\nColor primaries                          : BT.709\r\nTransfer characteristics                 : BT.709\r\nMatrix coefficients                      : BT.709\r\n\r\nAudio\r\nID                                       : 2\r\nFormat                                   : AAC\r\nFormat/Info                              : Advanced Audio Codec\r\nFormat profile                           : LC\r\nCodec ID                                 : 40\r\nDuration                                 : 47mn 49s\r\nBit rate mode                            : Variable\r\nBit rate                                 : 165 Kbps\r\nChannel(s)                               : 2 channels\r\nChannel positions                        : Front: L R\r\nSampling rate                            : 48.0 KHz\r\nCompression mode                         : Lossy\r\nStream size                              : 56.3 MiB (9%)\r\nTitle                                    : Stereo / Stereo\r\nLanguage                                 : French\r\nEncoded date                             : UTC 2018-08-24 11:54:46\r\nTagged date                              : UTC 2018-08-24 11:54:46","last_updated":"2018-08-25T12:13:47.077Z","parsed":{"xt":"urn:btih:dd8161590918c506b870f211dfa19f41a5d3ea69","dn":"Guyane S01 E01 - 720p x264 - FRE (ENG SUBS) [BRSHNKV]","tr":["udp://exodus.desync.com:6969","udp://open.demonii.com:1337","udp://tracker.coppersurfer.tk:6969","udp://tracker.leechers-paradise.org:6969","udp://zer0day.ch:1337"],"infoHash":"dd8161590918c506b870f211dfa19f41a5d3ea69","infoHashBuffer":{"type":"Buffer","data":[221,129,97,89,9,24,197,6,184,112,242,17,223,161,159,65,165,211,234,105]},"name":"Guyane S01 E01 - 720p x264 - FRE (ENG SUBS) [BRSHNKV]","announce":["udp://exodus.desync.com:6969","udp://open.demonii.com:1337","udp://tracker.coppersurfer.tk:6969","udp://tracker.leechers-paradise.org:6969","udp://zer0day.ch:1337"],"urlList":[]}}